<?xml version="1.0" encoding="utf-8"?>
<!-- Generator: Adobe Illustrator 23.0.2, SVG Export Plug-In . SVG Version: 6.00 Build 0)  -->
<svg version="1.1" id="Livello_1" xmlns="http://www.w3.org/2000/svg" xmlns:xlink="http://www.w3.org/1999/xlink" x="0px" y="0px"
	 viewBox="0 0 59 26" style="enable-background:new 0 0 59 26;" xml:space="preserve">
<style type="text/css">
	.st0{fill:#FFFFFF;}
</style>
<g>
	<path class="st0" d="M0.7,4c0-0.9,0.7-1.6,1.6-1.6C3.3,2.4,4,3.1,4,4c0,1-0.7,1.6-1.6,1.6C1.4,5.6,0.7,5,0.7,4z M2.3,7.8
		c0.9,0,1.4,0.5,1.4,1.3v6c0,0.6,0.2,0.9,0.6,0.9c0.5,0.1,0.8,0.7,0.7,1.3c-0.1,0.6-0.5,1.1-1.6,1.1C2,18.5,1,17.6,1,15.8V9.1
		C1,8.2,1.5,7.8,2.3,7.8z"/>
	<path class="st0" d="M14.6,12.9c0-2-1-2.9-2.7-2.9c-1.6,0-2.7,0.9-2.7,2.9v4.3c0,0.9-0.6,1.3-1.4,1.3c-0.8,0-1.4-0.4-1.4-1.3v-4.3
		c0-3.7,2.3-5.3,5.5-5.3c3.2,0,5.5,1.7,5.5,5.3v4.3c0,0.9-0.6,1.3-1.4,1.3c-0.8,0-1.4-0.4-1.4-1.3V12.9z"/>
	<path class="st0" d="M31.3,15.2c0,0.7,0.2,0.9,0.6,0.9c0.5,0.1,0.8,0.7,0.7,1.3c-0.1,0.6-0.5,1.1-1.5,1.1c-1.1,0-2-0.5-2.4-1.5
		c-0.8,1-2.2,1.6-4.1,1.6c-3.3,0-5.4-2-5.4-5.2c0-3.7,2.5-5.9,6.1-5.9c3.7,0,6,2.3,6,5.7V15.2z M25.3,9.8c-1.9,0-3.3,1.2-3.3,3.3
		c0,2.1,1.4,3.2,3.2,3.2c1.9,0,3.3-1.3,3.3-3.3C28.6,10.9,27.2,9.8,25.3,9.8z"/>
	<path class="st0" d="M42.8,17.1c-0.8,1.1-2.1,1.7-3.7,1.7c-3.2,0-5.5-2.1-5.5-5.4c0-3.4,2.5-5.8,6.1-5.8c3.7,0,6,2.5,6,5.6v4.5
		c0,4.7-3.6,5.9-7.1,5.9c-1.9,0-3.2-0.3-4.3-0.6c-0.6-0.2-0.8-0.6-0.8-1.1c0-0.7,0.6-1.4,1.6-1.2c1.1,0.3,1.9,0.6,3.6,0.6
		c2.1,0,4.2-0.9,4.2-3.6V17.1z M39.5,9.9c-1.7,0-3.1,1.2-3.1,3.2s1.5,3.1,3.2,3.1c1.7,0,3.1-1.1,3.1-3.1
		C42.7,11.1,41.3,9.9,39.5,9.9z"/>
	<path class="st0" d="M50.3,14.3c0.4,1.1,1.6,1.8,3.6,1.8c1.4,0,2.2-0.4,2.8-0.7c0.9-0.4,1.5,0.4,1.5,1.1c0,0.4-0.2,0.8-0.5,1.1
		c-0.8,0.6-2.2,1-4.3,1c-3.9,0-6.1-2.2-6.1-5.5c0-3.3,2.2-5.6,6-5.6c2.9,0,5,1.3,5,3.9c0,2.7-2,3.7-4.6,3.7
		C52.5,15.1,51.4,14.9,50.3,14.3z M50.3,12c1,0.4,1.9,0.6,3.1,0.6c1.6,0,2.4-0.5,2.4-1.3c0-0.8-0.8-1.4-2.3-1.4
		C51.5,9.9,50.6,10.8,50.3,12z"/>
</g>
</svg>
