<?xml version="1.0" encoding="utf-8"?>
<!-- Generator: Adobe Illustrator 27.5.0, SVG Export Plug-In . SVG Version: 6.00 Build 0)  -->
<svg version="1.1" id="Livello_1" xmlns="http://www.w3.org/2000/svg" xmlns:xlink="http://www.w3.org/1999/xlink" x="0px" y="0px" width="100" height="22"
	 viewBox="0 0 100 22" style="enable-background:new 0 0 100 22;" xml:space="preserve">
<style type="text/css">
	.st0{fill:#FFFFFF;}
</style>
<g>
	<path class="st0" d="M0.3,16.7V6h3.4C4.5,6,5,6,5.4,6.1c1.2,0.3,2.2,1.2,2.2,2.7c0,0.9-0.4,1.7-1.2,2.2c1.2,0.4,1.8,1.3,1.8,2.5
		c0,1-0.4,2-1.2,2.5c-0.8,0.6-1.4,0.7-3.1,0.7H0.3z M4,10.1c0.7,0,1-0.3,1-0.9S4.7,8.4,4,8.4H2.9v1.7C2.9,10.1,4,10.1,4,10.1z
		 M4.3,14.3c0.8,0,1.2-0.3,1.2-1c0-0.6-0.4-0.9-1.2-0.9H2.9v1.9H4.3z"/>
	<path class="st0" d="M8.7,16.7V6h2.7v10.7H8.7z"/>
	<path class="st0" d="M11.9,11.6c0-3.3,2.4-5.8,5.6-5.8c3.1,0,5.6,2.4,5.6,5.5c0,3.2-2.5,5.6-5.5,5.6C14.7,16.9,11.9,14.8,11.9,11.6
		z M20.4,11.4c0-1.7-1.2-3.2-2.9-3.2s-2.9,1.4-2.9,3.1c0,1.8,1.2,3.2,2.9,3.2C19.3,14.5,20.4,13.1,20.4,11.4z"/>
	<path class="st0" d="M28.9,16.7v-1.5h-3.1l-0.9,1.5h-3.3L29,6h2.7v10.7H28.9z M28.9,10L28.9,10l-1.8,3h1.8V10z"/>
	<path class="st0" d="M43.5,11.2c0,2.9-2.1,5.7-5.7,5.7c-3.2,0-5.7-2.5-5.7-5.6c0-3.2,2.6-5.5,5.7-5.5c2.4,0,4.7,1.6,5.3,3.8H40
		c-0.5-0.9-1.3-1.4-2.3-1.4c-1.7,0-2.9,1.4-2.9,3.1c0,1.8,1.1,3.2,2.9,3.2c1.3,0,2.2-0.6,2.6-1.7h-3.2v-2.2h6.3v0.6H43.5z"/>
	<path class="st0" d="M49.1,16.7l-2.5-3.4l0,0v3.4H44V6h3.5c1.1,0,2,0.1,2.5,0.4c1.2,0.5,2,1.8,2,3.3c0,1.7-1,3.1-2.7,3.4l2.9,3.6
		H49.1z M47.6,11.4c1.1,0,1.7-0.5,1.7-1.5c0-0.9-0.7-1.4-1.7-1.4h-1v3h1V11.4z"/>
	<path class="st0" d="M52.5,16.7V6h2.7v10.7H52.5z"/>
	<path class="st0" d="M56.2,16.7V6H62v2.4h-3.2v1.8h3.1v2.4h-3.1v4.1H56.2z"/>
	<path class="st0" d="M67.9,6h2.7v6.5c0,1.1-0.2,1.9-0.5,2.5c-0.7,1.1-1.9,1.8-3.5,1.8c-0.9,0-1.7-0.2-2.3-0.5
		c-1.3-0.7-1.9-1.7-1.9-3.8V6h2.7v6.5c0,1.3,0.4,2,1.4,2c0.9,0,1.4-0.5,1.4-2C67.9,12.5,67.9,6,67.9,6z"/>
	<path class="st0" d="M72.8,16.7V8.4H71V6h4.5v10.7H72.8z M81.4,6h2.7v6.8c0,2.6-1.5,4.1-4.2,4.1c-2.4,0-4-1.5-4-4.1V6h4.3v2.4h-1.6
		v4.1c0,1.6,0.4,2,1.4,2c0.9,0,1.4-0.6,1.4-2C81.4,12.5,81.4,6,81.4,6z"/>
	<path class="st0" d="M97,16.7v-1.5h-3.1L93,16.7h-2.8l-2.5-3.4l0,0v3.4h-2.6V6h3.5c1.1,0,1.9,0.1,2.5,0.4c1.1,0.5,2,1.8,2,3.3
		c0,1.6-1,3.1-2.7,3.4l1,1.2L97,6h2.7v10.7H97z M88.7,11.4c1.1,0,1.7-0.5,1.7-1.5c0-0.9-0.7-1.4-1.7-1.4h-1v3h1V11.4z M97,10L97,10
		l-1.8,3H97V10z"/>
</g>
</svg>
