<?xml version="1.0" encoding="utf-8"?>
<!-- Generator: Adobe Illustrator 27.5.0, SVG Export Plug-In . SVG Version: 6.00 Build 0)  -->
<svg version="1.1" id="Livello_1" xmlns="http://www.w3.org/2000/svg" xmlns:xlink="http://www.w3.org/1999/xlink" x="0px" y="0px" width="200" height="44"
	 viewBox="0 0 200 44" style="enable-background:new 0 0 100 22;" xml:space="preserve">
<style type="text/css">
	.st0{fill:#353535;}
</style>
<g>
	<path class="st0" d="M0.1,16.3V5.6h3.4c0.8,0,1.3,0,1.7,0.1C6.5,6,7.5,7,7.5,8.4c0,0.9-0.4,1.7-1.2,2.2C7.4,11,8,11.9,8,13.1
		c0,1-0.4,2-1.2,2.5c-0.8,0.6-1.4,0.7-3.1,0.7H0.1z M3.8,9.7c0.7,0,1-0.3,1-0.9S4.5,8,3.8,8H2.7v1.7H3.8z M4.1,13.9
		c0.8,0,1.2-0.3,1.2-1c0-0.6-0.4-0.9-1.2-0.9H2.7v2H4.1z"/>
	<path class="st0" d="M8.5,16.3V5.6h2.7v10.7H8.5z"/>
	<path class="st0" d="M11.8,11.2c0-3.3,2.4-5.8,5.6-5.8c3.1,0,5.7,2.4,5.7,5.5c0,3.2-2.5,5.6-5.5,5.6C14.6,16.5,11.8,14.4,11.8,11.2
		z M20.3,11c0-1.7-1.2-3.2-2.9-3.2c-1.7,0-2.9,1.4-2.9,3.1c0,1.8,1.2,3.2,3,3.2C19.1,14.1,20.3,12.7,20.3,11z"/>
	<path class="st0" d="M28.9,16.3v-1.5h-3.1l-0.9,1.5h-3.3l7.4-10.7h2.7v10.7H28.9z M28.9,9.7L28.9,9.7l-1.8,3h1.8V9.7z"/>
	<path class="st0" d="M43.5,10.9c0,2.9-2.1,5.7-5.7,5.7c-3.2,0-5.7-2.5-5.7-5.6c0-3.2,2.6-5.5,5.7-5.5c2.4,0,4.7,1.6,5.4,3.8h-3.1
		c-0.5-0.9-1.3-1.4-2.4-1.4c-1.7,0-2.9,1.4-2.9,3.1c0,1.8,1.1,3.2,2.9,3.2c1.3,0,2.2-0.6,2.6-1.7h-3.2v-2.2h6.4V10.9z"/>
	<path class="st0" d="M49.1,16.3l-2.5-3.5h0v3.5H44V5.6h3.5c1.1,0,2,0.1,2.5,0.4c1.2,0.5,2,1.8,2,3.3c0,1.7-1,3.1-2.7,3.4l2.9,3.6
		H49.1z M47.6,11c1.1,0,1.8-0.5,1.8-1.5c0-0.9-0.7-1.4-1.7-1.4h-1v3H47.6z"/>
	<path class="st0" d="M52.5,16.3V5.6h2.7v10.7H52.5z"/>
	<path class="st0" d="M56.2,16.3V5.6H62V8h-3.2v1.8h3.1v2.4h-3.1v4.1H56.2z"/>
	<path class="st0" d="M68,5.6h2.7v6.6c0,1.1-0.2,2-0.5,2.5c-0.7,1.1-1.9,1.8-3.5,1.8c-0.9,0-1.7-0.2-2.3-0.5
		c-1.3-0.7-1.9-1.7-1.9-3.8V5.6h2.7v6.5c0,1.3,0.4,2,1.4,2c0.9,0,1.4-0.5,1.4-2V5.6z"/>
	<path class="st0" d="M72.9,16.3V8h-1.8V5.6h4.5v10.7H72.9z M81.6,5.6h2.7v6.8c0,2.6-1.5,4.1-4.2,4.1c-2.4,0-4.1-1.5-4.1-4.1V5.6
		h4.4V8h-1.6v4.1c0,1.6,0.4,2,1.4,2c0.9,0,1.4-0.6,1.4-2V5.6z"/>
	<path class="st0" d="M97.2,16.3v-1.5h-3.1l-0.9,1.5h-2.8l-2.5-3.5h0v3.5h-2.6V5.6h3.5c1.1,0,2,0.1,2.5,0.4c1.1,0.5,2,1.8,2,3.3
		c0,1.6-1,3.1-2.7,3.4l1,1.2l5.7-8.3h2.7v10.7H97.2z M88.9,11c1.1,0,1.7-0.5,1.7-1.5c0-0.9-0.7-1.4-1.7-1.4h-1v3H88.9z M97.2,9.7
		L97.2,9.7l-1.8,3h1.8V9.7z"/>
</g>
</svg>
